<svg height="32.783" viewBox="0 0 47.288 32.783" width="47.288" xmlns="http://www.w3.org/2000/svg"><g fill="#d4d4d4"><path d="m328.112 304.4a5.961 5.961 0 1 0 5.961 5.961 5.967 5.967 0 0 0 -5.961-5.961zm0 8.941a2.98 2.98 0 1 1 2.98-2.98 2.983 2.983 0 0 1 -2.98 2.983z" transform="translate(-292.398 -283.541)"/><path d="m107.608 304.4a5.961 5.961 0 1 0 5.961 5.961 5.967 5.967 0 0 0 -5.961-5.961zm0 8.941a2.98 2.98 0 1 1 2.98-2.98 2.983 2.983 0 0 1 -2.98 2.983z" transform="translate(-92.259 -283.541)"/><path d="m339.936 111.611a1.491 1.491 0 0 0 -1.332-.821h-7.848v2.98h6.929l4.058 8.071 2.663-1.339z" transform="translate(-300.208 -107.81)"/><path d="m19.968 25.382h11.276v2.98h-11.276z"/><path d="m88.468 94.793-2.931-3.775a1.488 1.488 0 0 0 -1.177-.576h-10.829v-10.431a1.49 1.49 0 0 0 -1.49-1.49h-24.836a1.49 1.49 0 1 0 0 2.98h23.346v10.431a1.49 1.49 0 0 0 1.49 1.49h11.589l2.17 2.8v7.678h-4.123a1.49 1.49 0 0 0 0 2.98h5.613a1.49 1.49 0 0 0 1.49-1.49v-9.683a1.492 1.492 0 0 0 -.312-.914z" transform="translate(-41.493 -78.521)"/><path d="m34.7 271.6h-6.857a1.49 1.49 0 1 0 0 2.98h6.857a1.49 1.49 0 0 0 0-2.98z" transform="translate(-23.919 -253.765)"/><path d="m14.206 208.134h-12.716a1.49 1.49 0 0 0 0 2.98h12.716a1.49 1.49 0 0 0 0-2.98z" transform="translate(0 -196.163)"/><path d="m40.559 144.672h-12.716a1.49 1.49 0 1 0 0 2.98h12.716a1.49 1.49 0 0 0 0-2.98z" transform="translate(-23.919 -138.562)"/></g></svg>