<svg height="20.846" viewBox="0 0 19.746 20.846" width="19.746" xmlns="http://www.w3.org/2000/svg"><path d="m-4.418-37.159a6.284 6.284 0 0 0 2.852-5.27 6.317 6.317 0 0 0 -6.321-6.321 6.317 6.317 0 0 0 -6.321 6.321 6.284 6.284 0 0 0 2.852 5.27 9.85 9.85 0 0 0 -6.4 9.256h1.668a8.2 8.2 0 0 1 8.205-8.205 8.2 8.2 0 0 1 8.201 8.208h1.668a9.85 9.85 0 0 0 -6.404-9.259zm-8.122-5.27a4.655 4.655 0 0 1 4.653-4.653 4.655 4.655 0 0 1 4.653 4.653 4.655 4.655 0 0 1 -4.653 4.653 4.655 4.655 0 0 1 -4.653-4.653z" transform="translate(17.76 48.75)"/></svg>