<svg height="15.655" viewBox="0 0 15.574 15.655" width="15.574" xmlns="http://www.w3.org/2000/svg"><path d="m-6.809-43.57a6.664 6.664 0 0 0 -6.668-6.68 6.671 6.671 0 0 0 -6.668 6.68 6.659 6.659 0 0 0 6.668 6.656 6.637 6.637 0 0 0 4.244-1.519l3.838 3.838.823-.823-3.828-3.827a6.593 6.593 0 0 0 1.591-4.325zm-6.668 5.5a5.452 5.452 0 0 1 -2.145-.429 5.728 5.728 0 0 1 -1.751-1.171 5.592 5.592 0 0 1 -1.171-1.751 5.38 5.38 0 0 1 -.441-2.145 5.52 5.52 0 0 1 .441-2.157 5.728 5.728 0 0 1 1.171-1.751 5.433 5.433 0 0 1 1.751-1.183 5.622 5.622 0 0 1 2.145-.429 5.478 5.478 0 0 1 2.157.441 5.541 5.541 0 0 1 1.74 1.167 5.482 5.482 0 0 1 1.18 1.762 5.452 5.452 0 0 1 .429 2.145 5.356 5.356 0 0 1 -.429 2.134 5.175 5.175 0 0 1 -1.169 1.737 5.344 5.344 0 0 1 -1.751 1.2 5.508 5.508 0 0 1 -2.157.426z" transform="translate(20.145 50.25)"/></svg>