<svg height="43.38" viewBox="0 0 32.82 43.38" width="32.82" xmlns="http://www.w3.org/2000/svg"><path d="m12.48-25.68a3.078 3.078 0 0 0 1.74-1.38 3.209 3.209 0 0 0 .36-2.22l-.48-2.19c0-.03 0-.06.03-.06l1.5-1.68a3.062 3.062 0 0 0 .78-2.07 3.062 3.062 0 0 0 -.78-2.07l-1.5-1.68c-.03 0-.03-.03-.03-.06l.48-2.19a3.209 3.209 0 0 0 -.36-2.22 3.078 3.078 0 0 0 -1.74-1.38l-2.13-.69c-.03 0-.03-.03-.06-.06l-.69-2.13a3.078 3.078 0 0 0 -1.38-1.74 3.018 3.018 0 0 0 -2.22-.33l-2.16.45h-.09l-1.68-1.53a3.062 3.062 0 0 0 -2.07-.78 3.118 3.118 0 0 0 -2.07.78l-1.65 1.53h-.09l-2.19-.45a2.942 2.942 0 0 0 -2.19.33 3.009 3.009 0 0 0 -1.41 1.74l-.69 2.13a.065.065 0 0 1 -.06.06l-2.13.69a3.178 3.178 0 0 0 -1.74 1.38 3.039 3.039 0 0 0 -.33 2.22l.45 2.19a.042.042 0 0 1 0 .06l-1.5 1.68a2.951 2.951 0 0 0 -.81 2.07 2.951 2.951 0 0 0 .81 2.07l1.5 1.68a.042.042 0 0 1 0 .06l-.45 2.19a3.039 3.039 0 0 0 .33 2.22 3.178 3.178 0 0 0 1.74 1.38l.84.27-4.74 13.05 6.66-.99 4.44 5.04 3.96-10.86a2.928 2.928 0 0 0 1.32.3 2.965 2.965 0 0 0 1.35-.3l3.93 10.86 4.44-5.04 6.66.99-4.74-13.05zm-12.54 3.78-1.65-1.5a3.138 3.138 0 0 0 -2.1-.78 2.246 2.246 0 0 0 -.63.06l-2.19.48c-.06 0-.09-.03-.12-.09l-.69-2.13a3.1 3.1 0 0 0 -1.98-1.98l-2.13-.69c-.06-.03-.09-.06-.06-.12l.45-2.19a3.137 3.137 0 0 0 -.72-2.73l-1.5-1.65a.091.091 0 0 1 0-.12l1.5-1.65a3.137 3.137 0 0 0 .72-2.73l-.45-2.19c-.03-.06 0-.12.06-.12l2.13-.69a3.1 3.1 0 0 0 1.98-1.98l.69-2.13c.03-.06.06-.09.12-.09l2.19.48a3.137 3.137 0 0 0 2.73-.72l1.65-1.5a.091.091 0 0 1 .12 0l1.68 1.5a3.09 3.09 0 0 0 2.73.72l2.16-.48c.06 0 .12.03.12.09l.69 2.13a3.08 3.08 0 0 0 2.01 1.98l2.13.69c.03 0 .06.06.06.12l-.48 2.19a3.137 3.137 0 0 0 .72 2.73l1.5 1.65a.063.063 0 0 1 0 .12l-1.5 1.65a3.137 3.137 0 0 0 -.72 2.73l.48 2.19a.156.156 0 0 1 -.06.12l-2.13.69a3.08 3.08 0 0 0 -2.01 1.98l-.69 2.13c0 .06-.06.09-.12.09l-2.16-.48a3.09 3.09 0 0 0 -2.73.72l-1.68 1.5a.091.091 0 0 1 -.12 0zm7.95-13.38a7.829 7.829 0 0 0 -2.31-5.58 7.829 7.829 0 0 0 -5.58-2.31 7.829 7.829 0 0 0 -5.58 2.31 7.955 7.955 0 0 0 -2.31 5.58 7.955 7.955 0 0 0 2.31 5.58 7.955 7.955 0 0 0 5.58 2.31 7.955 7.955 0 0 0 5.58-2.31 7.829 7.829 0 0 0 2.31-5.58zm-7.89 4.89a4.891 4.891 0 0 1 -4.89-4.89 4.891 4.891 0 0 1 4.89-4.89 4.891 4.891 0 0 1 4.89 4.89 4.891 4.891 0 0 1 -4.89 4.89zm8.55 13.8-2.19 2.49-2.58-7.08a.042.042 0 0 1 .06 0l2.16.45a3.018 3.018 0 0 0 2.22-.33 2.944 2.944 0 0 0 1.26-1.44l2.37 6.42zm-14.91 2.49-2.19-2.49-3.27.51 2.34-6.42a2.863 2.863 0 0 0 1.29 1.44 2.942 2.942 0 0 0 2.19.33l2.19-.45h.03z" fill="#d4d4d4" transform="translate(16.41 51.69)"/></svg>