<svg height="39" viewBox="0 0 39 39" width="39" xmlns="http://www.w3.org/2000/svg"><path d="m15.9-46.5h-6.6v-1.5a1.485 1.485 0 0 0 -1.5-1.5 1.485 1.485 0 0 0 -1.5 1.5v1.5h-12.6v-1.5a1.485 1.485 0 0 0 -1.5-1.5 1.485 1.485 0 0 0 -1.5 1.5v1.5h-6.6a3.611 3.611 0 0 0 -3.6 3.6v28.8a3.611 3.611 0 0 0 3.6 3.6h31.8a3.611 3.611 0 0 0 3.6-3.6v-28.8a3.611 3.611 0 0 0 -3.6-3.6zm-31.8 3h6.6v1.5a1.485 1.485 0 0 0 1.5 1.5 1.485 1.485 0 0 0 1.5-1.5v-1.5h12.6v1.5a1.485 1.485 0 0 0 1.5 1.5 1.485 1.485 0 0 0 1.5-1.5v-1.5h6.6a.6.6 0 0 1 .6.6v4.71h-33v-4.71a.6.6 0 0 1 .6-.6zm31.8 30h-31.8a.6.6 0 0 1 -.6-.6v-21.09h33v21.09a.6.6 0 0 1 -.6.6zm-20.4-17.46a2.087 2.087 0 0 1 -2.1 2.1 2.087 2.087 0 0 1 -2.1-2.1 2.087 2.087 0 0 1 2.1-2.1 2.087 2.087 0 0 1 2.1 2.1zm6.6 0a2.087 2.087 0 0 1 -2.1 2.1 2.087 2.087 0 0 1 -2.1-2.1 2.087 2.087 0 0 1 2.1-2.1 2.087 2.087 0 0 1 2.1 2.1zm6.6.03a2.087 2.087 0 0 1 -2.1 2.1 2.087 2.087 0 0 1 -2.1-2.1 2.087 2.087 0 0 1 2.1-2.1 2.087 2.087 0 0 1 2.1 2.1zm6.6 0a2.087 2.087 0 0 1 -2.1 2.1 2.087 2.087 0 0 1 -2.1-2.1 2.087 2.087 0 0 1 2.1-2.1 2.087 2.087 0 0 1 2.1 2.1zm-19.8 6.57a2.087 2.087 0 0 1 -2.1 2.1 2.087 2.087 0 0 1 -2.1-2.1 2.087 2.087 0 0 1 2.1-2.1 2.087 2.087 0 0 1 2.1 2.1zm-6.6.03a2.087 2.087 0 0 1 -2.1 2.1 2.087 2.087 0 0 1 -2.1-2.1 2.087 2.087 0 0 1 2.1-2.1 2.087 2.087 0 0 1 2.1 2.1zm13.2 0a2.087 2.087 0 0 1 -2.1 2.1 2.087 2.087 0 0 1 -2.1-2.1 2.087 2.087 0 0 1 2.1-2.1 2.087 2.087 0 0 1 2.1 2.1zm6.6 0a2.087 2.087 0 0 1 -2.1 2.1 2.087 2.087 0 0 1 -2.1-2.1 2.087 2.087 0 0 1 2.1-2.1 2.087 2.087 0 0 1 2.1 2.1zm6.6 0a2.087 2.087 0 0 1 -2.1 2.1 2.087 2.087 0 0 1 -2.1-2.1 2.087 2.087 0 0 1 2.1-2.1 2.087 2.087 0 0 1 2.1 2.1zm-19.8 6.57a2.087 2.087 0 0 1 -2.1 2.1 2.087 2.087 0 0 1 -2.1-2.1 2.087 2.087 0 0 1 2.1-2.1 2.087 2.087 0 0 1 2.1 2.1zm-6.6.03a2.087 2.087 0 0 1 -2.1 2.1 2.087 2.087 0 0 1 -2.1-2.1 2.087 2.087 0 0 1 2.1-2.1 2.087 2.087 0 0 1 2.1 2.1zm13.2 0a2.087 2.087 0 0 1 -2.1 2.1 2.087 2.087 0 0 1 -2.1-2.1 2.087 2.087 0 0 1 2.1-2.1 2.087 2.087 0 0 1 2.1 2.1z" fill="#d4d4d4" transform="translate(19.5 49.5)"/></svg>