<svg height="18.678" viewBox="0 0 20.48 18.678" width="20.48" xmlns="http://www.w3.org/2000/svg"><path d="m-4.028-46.8a6.132 6.132 0 0 0 -4.152 1.634 6.132 6.132 0 0 0 -4.153-1.634 6.054 6.054 0 0 0 -6.087 6.02 6.076 6.076 0 0 0 1.684 4.186l8.555 8.472 8.556-8.472a5.973 5.973 0 0 0 1.685-4.186 6.054 6.054 0 0 0 -6.088-6.02zm0 1.668a4.381 4.381 0 0 1 4.42 4.352 4.251 4.251 0 0 1 -1.2 3l-7.372 7.324-7.355-7.3a4.263 4.263 0 0 1 -1.217-3.019 4.381 4.381 0 0 1 4.419-4.353 4.457 4.457 0 0 1 4.153 2.814 4.457 4.457 0 0 1 4.152-2.818z" transform="translate(18.42 46.8)"/></svg>